# xmcd
#
# Track frame offsets:
#	150
#	11553
#	23701
#	38413
#	51605
#	65816
#	79043
#	95818
#	108075
#	125849
#
# Disc length: 1869 seconds
#
# Revision: 1
# Processed by: cddbd v1.5.2PL0 Copyright (c) Steve Scherf et al.
# Submitted via: audiograbber 1.83.01
#
DISCID=83074b0a
DTITLE=Don Williams - Volume 2
DYEAR=1974
DGENRE=Country
TTITLE0=Wish I Was In Nashville
TTITLE1=Your Sweet Love
TTITLE2=She's In Love With A Rodeo Man
TTITLE3=Atta Way To Go
TTITLE4=We Should Be Together
TTITLE5=Loving You So Long Now
TTITLE6=Oh Misery
TTITLE7=Miller's Cave
TTITLE8=I Don't Think About Her No More
TTITLE9=Down The Road I Go
EXTD=
EXTT0=
EXTT1=
EXTT2=
EXTT3=
EXTT4=
EXTT5=
EXTT6=
EXTT7=
EXTT8=
EXTT9=
PLAYORDER=
